<svg xmlns="http://www.w3.org/2000/svg" viewBox="0 0 573.3 440.7" enable-background="new 0 0 573.3 440.7"><g><path fill="#EC7969" d="M115.5 111.9c-8.1 0-14.7-6.6-14.7-14.7V17.7c0-8.1 6.6-14.7 14.7-14.7h351.2c8.1 0 14.7 6.6 14.7 14.7v79.6c0 8.1-6.6 14.7-14.7 14.7H115.5z"/><path fill="#F15C43" d="M466.7 6c6.4 0 11.7 5.3 11.7 11.7v79.6c0 6.4-5.3 11.7-11.7 11.7H115.5c-6.4 0-11.7-5.3-11.7-11.7V17.7c0-6.4 5.3-11.7 11.7-11.7h351.2m0-6H115.5c-9.7 0-17.7 7.9-17.7 17.7v79.6c0 9.7 7.9 17.7 17.7 17.7h351.2c9.7 0 17.7-7.9 17.7-17.7V17.7c0-9.8-8-17.7-17.7-17.7z"/><path stroke="#F15C43" stroke-width="6" stroke-miterlimit="10" fill="none" d="M223 6v102.9M359.2 6v102.9"/><path fill="#EC7969" stroke="#F15C43" stroke-width="6" stroke-miterlimit="10" d="M87.8 108.9h406.7v47.3H87.8zM87.8 108.9V59.3c0-6.4 5.3-11.7 11.7-11.7H116c6.4 0 11.7 5.3 11.7 11.7v49.6H87.8zM127.7 108.9v-7.2c0-6.4 5.3-11.7 11.7-11.7h72c6.4 0 11.7 5.3 11.7 11.7v7.2h-95.4zM359.2 108.9v-7.2c0-6.4 5.3-11.7 11.7-11.7h72c6.4 0 11.7 5.3 11.7 11.7v7.2h-95.4zM223 108.9v-7.2c0-6.4 5.3-11.7 11.7-11.7h112.8c6.4 0 11.7 5.3 11.7 11.7v7.2H223zM454.5 108.9V59.3c0-6.4 5.3-11.7 11.7-11.7h16.6c6.4 0 11.7 5.3 11.7 11.7v49.6h-40z"/><circle fill="#F15C43" cx="96.3" cy="116.4" r="1.8"/><circle fill="#F15C43" cx="104.6" cy="116.4" r="1.8"/><circle fill="#F15C43" cx="112.9" cy="116.4" r="1.8"/><circle fill="#F15C43" cx="121.2" cy="116.4" r="1.8"/><circle fill="#F15C43" cx="129.4" cy="116.4" r="1.8"/><circle fill="#F15C43" cx="137.7" cy="116.4" r="1.8"/><circle fill="#F15C43" cx="146" cy="116.4" r="1.8"/><circle fill="#F15C43" cx="154.3" cy="116.4" r="1.8"/><circle fill="#F15C43" cx="162.6" cy="116.4" r="1.8"/><circle fill="#F15C43" cx="170.9" cy="116.4" r="1.8"/><circle fill="#F15C43" cx="179.2" cy="116.4" r="1.8"/><circle fill="#F15C43" cx="187.5" cy="116.4" r="1.8"/><circle fill="#F15C43" cx="195.7" cy="116.4" r="1.8"/><circle fill="#F15C43" cx="204" cy="116.4" r="1.8"/><circle fill="#F15C43" cx="212.3" cy="116.4" r="1.8"/><circle fill="#F15C43" cx="220.6" cy="116.4" r="1.8"/><circle fill="#F15C43" cx="228.9" cy="116.4" r="1.8"/><circle fill="#F15C43" cx="237.2" cy="116.4" r="1.8"/><circle fill="#F15C43" cx="245.5" cy="116.4" r="1.8"/><circle fill="#F15C43" cx="253.8" cy="116.4" r="1.8"/><circle fill="#F15C43" cx="262" cy="116.4" r="1.8"/><circle fill="#F15C43" cx="270.3" cy="116.4" r="1.8"/><circle fill="#F15C43" cx="278.6" cy="116.4" r="1.8"/><circle fill="#F15C43" cx="286.9" cy="116.4" r="1.8"/><circle fill="#F15C43" cx="295.2" cy="116.4" r="1.8"/><circle fill="#F15C43" cx="303.5" cy="116.4" r="1.8"/><circle fill="#F15C43" cx="311.8" cy="116.4" r="1.8"/><circle fill="#F15C43" cx="320.1" cy="116.4" r="1.8"/><circle fill="#F15C43" cx="328.3" cy="116.4" r="1.8"/><circle fill="#F15C43" cx="336.6" cy="116.4" r="1.8"/><circle fill="#F15C43" cx="344.9" cy="116.4" r="1.8"/><circle fill="#F15C43" cx="353.2" cy="116.4" r="1.8"/><circle fill="#F15C43" cx="361.5" cy="116.4" r="1.8"/><circle fill="#F15C43" cx="369.8" cy="116.4" r="1.8"/><circle fill="#F15C43" cx="378.1" cy="116.4" r="1.8"/><circle fill="#F15C43" cx="386.4" cy="116.4" r="1.8"/><circle fill="#F15C43" cx="394.6" cy="116.4" r="1.8"/><circle fill="#F15C43" cx="402.9" cy="116.4" r="1.8"/><circle fill="#F15C43" cx="411.2" cy="116.4" r="1.8"/><circle fill="#F15C43" cx="419.5" cy="116.4" r="1.8"/><circle fill="#F15C43" cx="427.8" cy="116.4" r="1.8"/><circle fill="#F15C43" cx="436.1" cy="116.4" r="1.8"/><circle fill="#F15C43" cx="444.4" cy="116.4" r="1.8"/><circle fill="#F15C43" cx="452.7" cy="116.4" r="1.8"/><circle fill="#F15C43" cx="460.9" cy="116.4" r="1.8"/><circle fill="#F15C43" cx="469.2" cy="116.4" r="1.8"/><circle fill="#F15C43" cx="477.5" cy="116.4" r="1.8"/><circle fill="#F15C43" cx="485.8" cy="116.4" r="1.8"/><circle fill="#F15C43" cx="464.5" cy="57.5" r="1.8"/><circle fill="#F15C43" cx="464.5" cy="64.1" r="1.8"/><circle fill="#F15C43" cx="471.3" cy="57.5" r="1.8"/><circle fill="#F15C43" cx="116" cy="59.2" r="1.8"/><circle fill="#F15C43" cx="116" cy="65.9" r="1.8"/><circle fill="#F15C43" cx="109.2" cy="59.2" r="1.8"/><path stroke="#2B2B2B" stroke-width="6" stroke-miterlimit="10" fill="none" d="M463 193.4h34.8M469.7 205.9h34.8M475.7 218.5h34.9M481.9 231h34.8M452 171.7l42.1 83.2"/><path d="M491.5 194.4c-3.6-5.8-7.5-12.3-14.3-12.3h-86.8c-6.8 0-12.3 5.5-12.3 12.3V230c0 6.8 5.5 12.3 12.3 12.3h109.7c6.8 0 13.8-7.3 8.2-18-6.2-12.1-9.4-18.1-16.8-29.9z" fill="none"/><path fill="#93C49F" d="M497 158.8H76.7L12.5 251v27.8h536.4V251L497 158.8zM194.8 230c0 6.8-5.5 12.3-12.3 12.3H72.8c-6.8 0-15.3-8.3-8.2-18 7.4-10.3 13.2-19.2 20.5-29.8 3.8-5.6 7.5-12.3 14.3-12.3h83.1c6.8 0 12.3 5.5 12.3 12.3V230zm146.1-.5c0 1.9-1.5 3.4-3.4 3.4h-102c-1.9 0-3.4-1.5-3.4-3.4v-30.8c0-1.9 1.5-3.4 3.4-3.4h102c1.9 0 3.4 1.5 3.4 3.4v30.8zm159.3 12.8H390.5c-6.8 0-12.3-5.5-12.3-12.3v-35.6c0-6.8 5.5-12.3 12.3-12.3h86.8c6.8 0 10.7 6.5 14.3 12.3 7.4 11.8 10.6 17.8 16.8 29.8 5.5 10.7-1.5 18.1-8.2 18.1z"/><path stroke="#2B2B2B" stroke-width="6" stroke-miterlimit="10" d="M337.5 195.3h-102c-1.9 0-3.4 1.5-3.4 3.4v30.8c0 1.9 1.5 3.4 3.4 3.4h102c1.9 0 3.4-1.5 3.4-3.4v-30.8c0-1.8-1.5-3.4-3.4-3.4zM182.5 182.1H99.4c-6.8 0-10.4 6.7-14.3 12.3-7.2 10.7-13.1 19.6-20.5 29.8-7.1 9.8 1.4 18 8.2 18h109.7c6.8 0 12.3-5.5 12.3-12.3v-35.6c0-6.7-5.5-12.2-12.3-12.2z" fill="none"/><path fill="#FEC56E" d="M0 265.4C0 278.9 6.2 279 12.4 279v-27.2C6.2 252.9 0 251.7 0 265.4z"/><path fill="#2B2B2B" d="M85.8 326.6h125.5v60H85.8zM366.2 326.6h125.5v60H366.2z"/><path fill="#6EAF7E" d="M280.7 278.9H12.4l18.4 120h53.7s2.8-4.9 4.1-7.1l17-29.5c4.7-8.2 13.4-13.2 22.8-13.2h34.1c9.4 0 18.1 5 22.8 13.2l17 29.5c1.3 2.3 4.1 7.1 4.1 7.1h161.1s2.8-4.9 4.1-7.1l17-29.5c4.7-8.2 13.4-13.2 22.8-13.2h34.1c9.4 0 18.1 5 22.8 13.2l17 29.5c1.3 2.3 4.3 7.1 4.3 7.1h43.9l15.1-92.2v-27.8H280.7z"/><path fill="#2B2B2B" d="M160.7 242.1V218c0-4.3 3.5-7.8 7.8-7.8h8.8c4.3 0 7.8 3.5 7.8 7.8v24.1"/><path fill="#2B2B2B" d="M565.5 240.9h-8.8c-4.3 0-7.8 3.5-7.8 7.8v57.9c0 4.3 3.5 7.8 7.8 7.8h8.8c4.3 0 7.8-3.5 7.8-7.8v-57.9c0-4.4-3.5-7.8-7.8-7.8z"/><circle fill="#58595B" cx="146.2" cy="398.9" r="41.8"/><circle fill="#F2EDD6" cx="146.2" cy="398.9" r="18.1"/><circle fill="#58595B" cx="428.9" cy="398.9" r="41.8"/><circle fill="#F2EDD6" cx="428.9" cy="398.9" r="18.1"/><path fill="#F2EDD6" d="M507.3 273H62.4c-3.3 0-6 2.7-6 6h456.8c0-3.3-2.6-6-5.9-6z"/><path opacity=".7" fill="#F2EDD6" d="M548.9 306.7H16.8L12.4 279h536.5z"/><path stroke="#2B2B2B" stroke-width="6" stroke-miterlimit="10" d="M500.2 242.3H390.5c-6.8 0-12.3-5.5-12.3-12.3v-35.6c0-6.8 5.5-12.3 12.3-12.3h86.8c6.8 0 10.7 6.5 14.3 12.3 7.4 11.8 10.6 17.8 16.8 29.8 5.5 10.7-1.5 18.1-8.2 18.1zM353.6 354.6c0 6.8-5.5 12.3-12.3 12.3H231.7c-6.8 0-12.3-5.5-12.3-12.3V194.4c0-6.8 5.5-12.3 12.3-12.3h109.7c6.8 0 12.3 5.5 12.3 12.3v160.2z" fill="none"/><path stroke="#292929" stroke-width="6" stroke-miterlimit="10" d="M205.4 158.8c0-6.2 5-11.2 11.2-11.2h227.5M431.4 147.6v11.2M420.3 147.6v11.2" fill="none"/><path fill="#2B2B2B" d="M336.8 287.8H312c-2.3 0-4.1 1.9-4.1 4.1 0 2.3 1.9 4.1 4.1 4.1h24.8c2.3 0 4.1-1.9 4.1-4.1s-1.8-4.1-4.1-4.1z"/><path stroke="#292929" stroke-width="6" stroke-miterlimit="10" d="M444.1 147.6c6.2 0 11.2 5 11.2 11.2" fill="none"/><path fill="#FBB03C" d="M48.3 317c0 1-.8 1.8-1.8 1.8H30.6c-1 0-1.8-.8-1.8-1.8v-4.5c0-1 .8-1.8 1.8-1.8h15.8c1 0 1.8.8 1.8 1.8v4.5zM536.3 317c0 1-.8 1.8-1.8 1.8h-15.8c-1 0-1.8-.8-1.8-1.8v-4.5c0-1 .8-1.8 1.8-1.8h15.8c1 0 1.8.8 1.8 1.8v4.5z"/></g></svg>